{"level":"error","process":"stream_process","replica":0,"message":"ffmpeg version 7.1 Copyright (c) 2000-2024 the FFmpeg developers"}
{"level":"error","process":"stream_process","replica":0,"message":"  built with Apple clang version 16.0.0 (clang-1600.0.26.3)"}
{"level":"error","process":"stream_process","replica":0,"message":"  configuration: --prefix=/opt/homebrew/Cellar/ffmpeg/7.1 --enable-shared --enable-pthreads --enable-version3 --cc=clang --host-cflags= --host-ldflags='-Wl,-ld_classic' --enable-ffplay --enable-gnutls --enable-gpl --enable-libaom --enable-libaribb24 --enable-libbluray --enable-libdav1d --enable-libharfbuzz --enable-libjxl --enable-libmp3lame --enable-libopus --enable-librav1e --enable-librist --enable-librubberband --enable-libsnappy --enable-libsrt --enable-libssh --enable-libsvtav1 --enable-libtesseract --enable-libtheora --enable-libvidstab --enable-libvmaf --enable-libvorbis --enable-libvpx --enable-libwebp --enable-libx264 --enable-libx265 --enable-libxml2 --enable-libxvid --enable-lzma --enable-libfontconfig --enable-libfreetype --enable-frei0r --enable-libass --enable-libopencore-amrnb --enable-libopencore-amrwb --enable-libopenjpeg --enable-libspeex --enable-libsoxr --enable-libzmq --enable-libzimg --disable-libjack --disable-indev=jack --enable-videotoolbox --enable-audiotoolbox --enable-neon"}
{"level":"error","process":"stream_process","replica":0,"message":"  libavutil      59. 39.100 / 59. 39.100"}
{"level":"error","process":"stream_process","replica":0,"message":"  libavcodec     61. 19.100 / 61. 19.100"}
{"level":"error","process":"stream_process","replica":0,"message":"  libavformat    61.  7.100 / 61.  7.100"}
{"level":"error","process":"stream_process","replica":0,"message":"  libavdevice    61.  3.100 / 61.  3.100"}
{"level":"error","process":"stream_process","replica":0,"message":"  libavfilter    10.  4.100 / 10.  4.100"}
{"level":"error","process":"stream_process","replica":0,"message":"  libswscale      8.  3.100 /  8.  3.100"}
{"level":"error","process":"stream_process","replica":0,"message":"  libswresample   5.  3.100 /  5.  3.100"}
{"level":"error","process":"stream_process","replica":0,"message":"  libpostproc    58.  3.100 / 58.  3.100"}
{"level":"error","process":"stream_process","replica":0,"message":"Input #0, lavfi, from 'testsrc=size=1920x1080:rate=30':"}
{"level":"error","process":"stream_process","replica":0,"message":"  Duration: N/A, start: 0.000000, bitrate: N/A"}
{"level":"error","process":"stream_process","replica":0,"message":"  Stream #0:0: Video: wrapped_avframe, rgb24, 1920x1080 [SAR 1:1 DAR 16:9], 30 fps, 30 tbr, 30 tbn"}
{"level":"error","process":"stream_process","replica":0,"message":"Input #1, lavfi, from 'sine=frequency=220:beep_factor=4':"}
{"level":"error","process":"stream_process","replica":0,"message":"  Duration: N/A, start: 0.000000, bitrate: 705 kb/s"}
{"level":"error","process":"stream_process","replica":0,"message":"  Stream #1:0: Audio: pcm_s16le, 44100 Hz, mono, s16, 705 kb/s"}
{"level":"error","process":"stream_process","replica":0,"message":"Stream mapping:"}
{"level":"error","process":"stream_process","replica":0,"message":"  Stream #0:0 -> #0:0 (wrapped_avframe (native) -> h264 (libx264))"}
{"level":"error","process":"stream_process","replica":0,"message":"  Stream #1:0 -> #0:1 (pcm_s16le (native) -> aac (native))"}
{"level":"error","process":"stream_process","replica":0,"message":"Press [q] to stop, [?] for help"}
{"level":"error","process":"stream_process","replica":0,"message":"[libx264 @ 0x154a05d10] using SAR=1/1"}
{"level":"error","process":"stream_process","replica":0,"message":"[libx264 @ 0x154a05d10] using cpu capabilities: ARMv8 NEON"}
{"level":"error","process":"stream_process","replica":0,"message":"[libx264 @ 0x154a05d10] profile Main, level 4.0, 4:2:0, 8-bit"}
{"level":"error","process":"stream_process","replica":0,"message":"Output #0, mpegts, to 'srt://18.188.151.79:3001':"}
{"level":"error","process":"stream_process","replica":0,"message":"  Metadata:"}
{"level":"error","process":"stream_process","replica":0,"message":"    encoder         : Lavf61.7.100"}
{"level":"error","process":"stream_process","replica":0,"message":"  Stream #0:0: Video: h264, yuv420p(tv, progressive), 1920x1080 [SAR 1:1 DAR 16:9], q=2-31, 1000 kb/s, 30 fps, 90k tbn"}
{"level":"error","process":"stream_process","replica":0,"message":"      Metadata:"}
{"level":"error","process":"stream_process","replica":0,"message":"        encoder         : Lavc61.19.100 libx264"}
{"level":"error","process":"stream_process","replica":0,"message":"      Side data:"}
{"level":"error","process":"stream_process","replica":0,"message":"        cpb: bitrate max/min/avg: 0/0/1000000 buffer size: 0 vbv_delay: N/A"}
{"level":"error","process":"stream_process","replica":0,"message":"  Stream #0:1: Audio: aac (LC), 44100 Hz, mono, fltp, 69 kb/s"}
{"level":"error","process":"stream_process","replica":0,"message":"      Metadata:"}
{"level":"error","process":"stream_process","replica":0,"message":"        encoder         : Lavc61.19.100 aac"}
